<?xml version="1.0" encoding="UTF-8"?>
<!DOCTYPE svg PUBLIC "-//W3C//DTD SVG 1.1//EN" "http://www.w3.org/Graphics/SVG/1.1/DTD/svg11.dtd">
<svg xmlns="http://www.w3.org/2000/svg" version="1.1" width="512px" height="512px" style="shape-rendering:geometricPrecision; text-rendering:geometricPrecision; image-rendering:optimizeQuality; fill-rule:evenodd; clip-rule:evenodd" xmlns:xlink="http://www.w3.org/1999/xlink">
<g><path style="opacity:0.958" fill="#67b0c3" d="M 105.5,-0.5 C 108.5,-0.5 111.5,-0.5 114.5,-0.5C 119.566,3.05552 120.733,7.72218 118,13.5C 107.795,18.3522 97.9614,23.8522 88.5,30C 72.2311,44.3472 72.5645,58.3472 89.5,72C 97.1096,77.6388 105.443,81.9722 114.5,85C 120.769,89.9031 121.102,95.2364 115.5,101C 113.966,101.923 112.299,102.423 110.5,102.5C 91.9022,97.6234 76.7355,87.6234 65,72.5C 53.5754,48.4279 58.742,28.5945 80.5,13C 88.6079,7.94829 96.9412,3.44829 105.5,-0.5 Z"/></g>
<g><path style="opacity:0.96" fill="#67b0c3" d="M 396.5,-0.5 C 399.5,-0.5 402.5,-0.5 405.5,-0.5C 419.707,5.1928 432.207,13.5261 443,24.5C 455.242,41.2582 455.575,58.2582 444,75.5C 432.115,88.6936 417.615,97.6936 400.5,102.5C 391.97,100.439 389.637,95.4393 393.5,87.5C 403.252,83.123 412.586,77.9564 421.5,72C 438.436,58.3472 438.769,44.3472 422.5,30C 413.528,23.9294 404.028,18.7628 394,14.5C 390.819,8.87818 391.653,3.87818 396.5,-0.5 Z"/></g>
<g><path style="opacity:0.984" fill="#2f9ec2" d="M 298.5,91.5 C 298.5,78.8333 298.5,66.1667 298.5,53.5C 304.387,53.6504 310.221,54.3171 316,55.5C 323.21,53.9576 325.877,49.6243 324,42.5C 322.833,41.3333 321.667,40.1667 320.5,39C 278.228,32.0574 235.895,31.7241 193.5,38C 186.926,41.7027 185.926,46.536 190.5,52.5C 192.707,54.0287 195.207,54.6953 198,54.5C 202.819,53.9089 207.652,53.5755 212.5,53.5C 212.5,66.1667 212.5,78.8333 212.5,91.5C 186.431,89.566 161.431,83.3994 137.5,73C 131.079,69.5744 125.579,65.0744 121,59.5C 118.185,54.3169 117.852,48.9836 120,43.5C 127.785,33.8463 137.618,27.013 149.5,23C 183.971,12.1073 219.305,6.94059 255.5,7.5C 291.695,6.94059 327.029,12.1073 361.5,23C 373.382,27.013 383.215,33.8463 391,43.5C 393.879,51.8652 392.045,59.0319 385.5,65C 372.8,74.0131 358.8,80.3464 343.5,84C 328.671,87.5825 313.671,90.0825 298.5,91.5 Z"/></g>
<g><path style="opacity:1" fill="#297fb0" d="M 298.5,91.5 C 297.505,78.6774 297.171,65.6774 297.5,52.5C 282.184,51.5012 266.851,50.8345 251.5,50.5C 244.991,50.5004 238.658,50.8338 232.5,51.5C 225.626,51.5207 218.959,52.1873 212.5,53.5C 207.652,53.5755 202.819,53.9089 198,54.5C 195.207,54.6953 192.707,54.0287 190.5,52.5C 185.926,46.536 186.926,41.7027 193.5,38C 235.895,31.7241 278.228,32.0574 320.5,39C 321.667,40.1667 322.833,41.3333 324,42.5C 325.877,49.6243 323.21,53.9576 316,55.5C 310.221,54.3171 304.387,53.6504 298.5,53.5C 298.5,66.1667 298.5,78.8333 298.5,91.5 Z"/></g>
<g><path style="opacity:0.994" fill="#2c3e50" d="M 232.5,51.5 C 240.167,51.5 247.833,51.5 255.5,51.5C 255.5,74.8333 255.5,98.1667 255.5,121.5C 247.463,136.788 235.796,140.288 220.5,132C 216.619,129.072 214.119,125.239 213,120.5C 212.5,110.839 212.334,101.172 212.5,91.5C 212.5,78.8333 212.5,66.1667 212.5,53.5C 218.959,52.1873 225.626,51.5207 232.5,51.5 Z"/></g>
<g><path style="opacity:0.99" fill="#285680" d="M 232.5,51.5 C 238.658,50.8338 244.991,50.5004 251.5,50.5C 266.851,50.8345 282.184,51.5012 297.5,52.5C 297.171,65.6774 297.505,78.6774 298.5,91.5C 298.666,101.172 298.5,110.839 298,120.5C 291.186,136.004 280.019,140.171 264.5,133C 260.462,129.817 257.462,125.984 255.5,121.5C 255.5,98.1667 255.5,74.8333 255.5,51.5C 247.833,51.5 240.167,51.5 232.5,51.5 Z"/></g>
<g><path style="opacity:0.99" fill="#f4cea4" d="M 265.5,272.5 C 258.833,272.5 252.167,272.5 245.5,272.5C 221.669,264.467 210.836,247.801 213,222.5C 220.601,195.246 238.434,183.746 266.5,188C 289.975,196.158 300.475,212.658 298,237.5C 293.841,255.488 283.008,267.155 265.5,272.5 Z"/></g>
<g><path style="opacity:0.99" fill="#ff5263" d="M 245.5,272.5 C 252.167,272.5 258.833,272.5 265.5,272.5C 279.585,271.03 292.251,274.53 303.5,283C 324.875,301.377 346.541,319.377 368.5,337C 376.768,346.518 377.601,356.685 371,367.5C 360.861,377.145 350.027,377.978 338.5,370C 325.643,359.643 312.643,349.476 299.5,339.5C 298.5,359.822 298.167,380.156 298.5,400.5C 269.833,400.5 241.167,400.5 212.5,400.5C 212.667,380.164 212.5,359.831 212,339.5C 198.833,350.667 185.667,361.833 172.5,373C 160.937,380.926 150.104,380.093 140,370.5C 134.434,362.06 134.101,353.393 139,344.5C 162.406,323.549 185.906,302.716 209.5,282C 220.326,274.46 232.326,271.293 245.5,272.5 Z"/></g>
<g><path style="opacity:0.998" fill="#28557f" d="M 212.5,400.5 C 241.167,400.5 269.833,400.5 298.5,400.5C 298.5,406.833 298.5,413.167 298.5,419.5C 297.505,431.989 297.171,444.656 297.5,457.5C 296.209,457.263 295.209,457.596 294.5,458.5C 286.521,459.224 278.521,459.558 270.5,459.5C 268.167,459.5 265.833,459.5 263.5,459.5C 263.666,449.828 263.5,440.161 263,430.5C 258,425.167 253,425.167 248,430.5C 247.5,440.161 247.334,449.828 247.5,459.5C 243.167,459.5 238.833,459.5 234.5,459.5C 228.131,459.653 221.797,459.32 215.5,458.5C 213.872,445.57 212.872,432.57 212.5,419.5C 212.5,413.167 212.5,406.833 212.5,400.5 Z"/></g>
<g><path style="opacity:0.98" fill="#e7bb18" d="M 114.5,511.5 C 111.5,511.5 108.5,511.5 105.5,511.5C 91.2931,505.807 78.7931,497.474 68,486.5C 55.7581,469.742 55.4247,452.742 67,435.5C 78.8853,422.306 93.3853,413.306 110.5,408.5C 119.03,410.561 121.363,415.561 117.5,423.5C 108.245,427.795 99.2449,432.629 90.5,438C 73.2753,451.044 72.2753,465.044 87.5,480C 95.9422,486.556 105.276,491.556 115.5,495C 121.047,500.968 120.713,506.468 114.5,511.5 Z"/></g>
<g><path style="opacity:0.981" fill="#e7bb18" d="M 404.5,511.5 C 401.833,511.5 399.167,511.5 396.5,511.5C 391.434,507.944 390.267,503.278 393,497.5C 403.205,492.648 413.039,487.148 422.5,481C 438.914,466.01 438.248,451.676 420.5,438C 413.058,432.946 405.058,428.946 396.5,426C 390.324,420.969 389.991,415.636 395.5,410C 397.034,409.077 398.701,408.577 400.5,408.5C 419.098,413.377 434.264,423.377 446,438.5C 455.334,455.159 454.334,471.159 443,486.5C 431.995,497.746 419.162,506.079 404.5,511.5 Z"/></g>
<g><path style="opacity:0.988" fill="#e9931f" d="M 212.5,419.5 C 212.5,432.167 212.5,444.833 212.5,457.5C 205.822,457.119 199.156,456.952 192.5,457C 186.242,461.561 185.909,466.561 191.5,472C 234.461,479.095 277.461,479.095 320.5,472C 325.756,466.924 325.756,461.924 320.5,457C 313.165,456.722 305.832,456.889 298.5,457.5C 298.5,444.833 298.5,432.167 298.5,419.5C 325.348,421.462 351.015,427.962 375.5,439C 397.697,452.548 398.03,466.548 376.5,481C 355.303,491.217 332.97,497.55 309.5,500C 261.06,506.357 213.06,504.024 165.5,493C 152.203,489.794 139.87,484.46 128.5,477C 116.455,467.65 115.455,457.317 125.5,446C 140.935,435.457 157.935,428.457 176.5,425C 188.372,422.28 200.372,420.447 212.5,419.5 Z"/></g>
<g><path style="opacity:1" fill="#676960" d="M 212.5,419.5 C 212.872,432.57 213.872,445.57 215.5,458.5C 214.209,458.737 213.209,458.404 212.5,457.5C 212.5,444.833 212.5,432.167 212.5,419.5 Z"/></g>
<g><path style="opacity:1" fill="#676960" d="M 298.5,419.5 C 298.5,432.167 298.5,444.833 298.5,457.5C 297.432,458.434 296.099,458.768 294.5,458.5C 295.209,457.596 296.209,457.263 297.5,457.5C 297.171,444.656 297.505,431.989 298.5,419.5 Z"/></g>
<g><path style="opacity:1" fill="#303f50" d="M 270.5,459.5 C 258.5,460.833 246.5,460.833 234.5,459.5C 238.833,459.5 243.167,459.5 247.5,459.5C 247.334,449.828 247.5,440.161 248,430.5C 253,425.167 258,425.167 263,430.5C 263.5,440.161 263.666,449.828 263.5,459.5C 265.833,459.5 268.167,459.5 270.5,459.5 Z"/></g>
<g><path style="opacity:1" fill="#db7e25" d="M 212.5,457.5 C 213.209,458.404 214.209,458.737 215.5,458.5C 221.797,459.32 228.131,459.653 234.5,459.5C 246.5,460.833 258.5,460.833 270.5,459.5C 278.521,459.558 286.521,459.224 294.5,458.5C 296.099,458.768 297.432,458.434 298.5,457.5C 305.832,456.889 313.165,456.722 320.5,457C 325.756,461.924 325.756,466.924 320.5,472C 277.461,479.095 234.461,479.095 191.5,472C 185.909,466.561 186.242,461.561 192.5,457C 199.156,456.952 205.822,457.119 212.5,457.5 Z"/></g>
</svg>
